<svg width="512" height="512" viewBox="0 0 512 512" fill="none" xmlns="http://www.w3.org/2000/svg">
<path d="M182.508 334.538L341.033 176.462M256 50L312.054 83.5123L377.145 89.2347L402.731 149.209L452 191.953L437.352 255.5L452 319.015L402.731 361.791L377.145 421.765L312.054 427.488L256 461L199.977 427.488L134.855 421.765L109.301 361.791L60 319.015L74.6477 255.5L60 191.985L109.301 149.209L134.855 89.2347L199.977 83.5123L256 50ZM230.065 208.077C230.065 216.462 226.725 224.503 220.779 230.432C214.833 236.361 206.769 239.692 198.36 239.692C189.952 239.692 181.887 236.361 175.942 230.432C169.996 224.503 166.655 216.462 166.655 208.077C166.655 199.692 169.996 191.651 175.942 185.721C181.887 179.792 189.952 176.462 198.36 176.462C206.769 176.462 214.833 179.792 220.779 185.721C226.725 191.651 230.065 199.692 230.065 208.077ZM356.885 318.731C356.885 327.116 353.545 335.157 347.599 341.086C341.653 347.015 333.589 350.346 325.18 350.346C316.772 350.346 308.707 347.015 302.761 341.086C296.816 335.157 293.475 327.116 293.475 318.731C293.475 310.346 296.816 302.304 302.761 296.375C308.707 290.446 316.772 287.115 325.18 287.115C333.589 287.115 341.653 290.446 347.599 296.375C353.545 302.304 356.885 310.346 356.885 318.731Z" stroke="black" stroke-width="28" stroke-linecap="round"/>
</svg>
